<?xml version="1.0" encoding="UTF-8" standalone="no"?>
<svg
   height="24"
   width="24"
   version="1.1"
   id="svg14"
   sodipodi:docname="universal-ctags.04-font.svg"
   inkscape:version="1.1.1 (3bf5ae0d25, 2021-09-20)"
   xmlns:inkscape="http://www.inkscape.org/namespaces/inkscape"
   xmlns:sodipodi="http://sodipodi.sourceforge.net/DTD/sodipodi-0.dtd"
   xmlns="http://www.w3.org/2000/svg"
   xmlns:svg="http://www.w3.org/2000/svg">
  <defs
     id="defs18" />
  <sodipodi:namedview
     id="namedview16"
     pagecolor="#ffffff"
     bordercolor="#666666"
     borderopacity="1.0"
     inkscape:pageshadow="2"
     inkscape:pageopacity="0.0"
     inkscape:pagecheckerboard="0"
     showgrid="false"
     showguides="true"
     inkscape:zoom="25.662084"
     inkscape:cx="23.906866"
     inkscape:cy="9.3328352"
     inkscape:window-width="1918"
     inkscape:window-height="1041"
     inkscape:window-x="1920"
     inkscape:window-y="0"
     inkscape:window-maximized="1"
     inkscape:current-layer="svg14">
    <inkscape:grid
       type="xygrid"
       id="grid165943" />
  </sodipodi:namedview>
  <path
     d="M 2.163299,1.0367821 C 0.96850896,1.0367821 0,1.969886 0,3.1103463 v 7.3611527 0.103678 c 0.0176774,0.518391 0.26571802,1.036783 0.64222939,1.451495 L 12.505761,23.327597 c 0.394802,0.414713 0.942117,0.62207 1.555412,0.62207 0.613295,0 1.16061,-0.207357 1.555412,-0.62207 l 7.638609,-7.257474 c 0.441313,-0.414713 0.709562,-0.933104 0.709562,-1.555174 0,-0.622069 -0.268249,-1.244138 -0.709562,-1.555173 L 11.458724,1.6588514 C 11.074739,1.2441385 10.521151,1.0367821 9.9373844,1.0367821 H 9.9035287 2.1630286 Z m 3.2449485,3.1103463 c 1.19479,0 2.163299,0.9331039 2.163299,2.0735642 0,1.1404603 -0.968509,2.0735642 -2.163299,2.0735642 -1.19479,0 -2.163299,-0.9331039 -2.163299,-2.0735642 0,-1.1404603 0.968509,-2.0735642 2.163299,-2.0735642 z"
     fill="#27ae60"
     id="path2"
     style="stroke-width:1.05898" />
  <path
     d="M 2.163299,0 C 0.96850896,0 0,0.92837616 0,2.0735642 v 7.4194201 0.064903 C 0.0176774,10.104375 0.26571802,10.622869 0.64222939,10.98367 L 12.505761,22.355096 c 0.394802,0.393977 0.942117,0.615848 1.555412,0.615848 0.613295,0 1.16061,-0.221871 1.555412,-0.615848 l 7.638609,-7.321756 c 0.441313,-0.379462 0.709562,-0.942434 0.709562,-1.555173 0,-0.612738 -0.268249,-1.175711 -0.709562,-1.555173 L 11.458724,0.61584857 C 11.074739,0.24752136 10.521151,0.0086675 9.9373844,0 H 9.9035287 2.1630286 Z m 3.2449485,3.1103463 c 1.19479,0 2.163299,0.9283347 2.163299,2.0735642 0,1.1452295 -0.968509,2.0735642 -2.163299,2.0735642 -1.19479,0 -2.163299,-0.9283347 -2.163299,-2.0735642 0,-1.1452295 0.968509,-2.0735642 2.163299,-2.0735642 z"
     fill="#2ecc71"
     id="path4"
     style="stroke-width:1.05898" />
  <path
     d="M 14.061443,20.735642 21.63299,13.478167 12.979794,5.1839105 5.4082475,12.441385 Z"
     fill="#ecf0f1"
     id="path8"
     style="stroke-width:1.05898" />
  <g
     aria-label=";&quot;"
     transform="matrix(0.72374082,-0.69084911,0.72074604,0.69371966,0,0)"
     id="text9626"
     style="font-size:11.2958px;line-height:1.25;font-family:'Arial Black';-inkscape-font-specification:'Arial Black, ';fill:#b3b3b3;stroke-width:1.05898">
    <path
       d="m -4.2133124,15.792244 h 2.3992545 v 2.250336 h -2.3992545 z m 0,3.629217 h 2.3992545 v 1.847702 q 0,1.020373 -0.4246956,1.610534 -0.4246957,0.590162 -1.4505838,1.042435 l -0.5239751,-0.981764 q 0.6398012,-0.297839 0.8769689,-0.595677 0.2426832,-0.292323 0.2702608,-0.694957 h -1.1472297 z"
       id="path836" />
    <path
       d="M -0.87090269,13.563971 H 1.3684014 v 1.334758 l -0.3529937,1.638112 h -1.52228558 l -0.36402481,-1.638112 z m 2.87358979,0 h 2.2393041 v 1.334758 L 3.8889975,16.536841 H 2.3667119 L 2.0026871,14.898729 Z"
       id="path838" />
  </g>
  <path
     style="fill:#9ae8bc;fill-opacity:1;stroke:none;stroke-width:1.05898px;stroke-linecap:butt;stroke-linejoin:miter;stroke-opacity:1"
     d="m 5.4082475,12.441385 8.6531955,8.294257 7.571547,-7.257475 h 0.966762 L 14.06901,21.65505 4.4514594,12.436441 Z"
     id="path141154" />
  <path
     style="fill:#27ae60;fill-opacity:1;stroke:none;stroke-width:1.05898px;stroke-linecap:butt;stroke-linejoin:miter;stroke-opacity:1"
     d="M 5.4082475,12.441385 12.979794,5.1839105 21.63299,13.478167 h 0.966762 L 12.883681,4.1651238 4.4514594,12.436441 Z"
     id="path148222" />
</svg>
