<?xml version="1.0" encoding="UTF-8" standalone="no"?>
<!-- Created with Inkscape (http://www.inkscape.org/) -->

<svg
   xmlns:dc="http://purl.org/dc/elements/1.1/"
   xmlns:cc="http://creativecommons.org/ns#"
   xmlns:rdf="http://www.w3.org/1999/02/22-rdf-syntax-ns#"
   xmlns:svg="http://www.w3.org/2000/svg"
   xmlns="http://www.w3.org/2000/svg"
   xmlns:sodipodi="http://sodipodi.sourceforge.net/DTD/sodipodi-0.dtd"
   xmlns:inkscape="http://www.inkscape.org/namespaces/inkscape"
   width="72.79567mm"
   height="80.585587mm"
   viewBox="0 0 257.93741 285.53947"
   id="svg2"
   version="1.1"
   inkscape:version="0.92.0 r"
   sodipodi:docname="area-and-parsers.svg">
  <defs
     id="defs4">
    <marker
       inkscape:stockid="Arrow1Lend"
       orient="auto"
       refY="0"
       refX="0"
       id="marker12257"
       style="overflow:visible"
       inkscape:isstock="true">
      <path
         inkscape:connector-curvature="0"
         id="path12259"
         d="M 0,0 5,-5 -12.5,0 5,5 Z"
         style="fill:#666666;fill-opacity:1;fill-rule:evenodd;stroke:#666666;stroke-width:1.00000003pt;stroke-opacity:1"
         transform="matrix(-0.8,0,0,-0.8,-10,0)" />
    </marker>
    <marker
       inkscape:isstock="true"
       style="overflow:visible"
       id="marker11059"
       refX="0"
       refY="0"
       orient="auto"
       inkscape:stockid="Arrow1Lend">
      <path
         transform="matrix(-0.8,0,0,-0.8,-10,0)"
         style="fill:#666666;fill-opacity:1;fill-rule:evenodd;stroke:#666666;stroke-width:1.00000003pt;stroke-opacity:1"
         d="M 0,0 5,-5 -12.5,0 5,5 Z"
         id="path11061"
         inkscape:connector-curvature="0" />
    </marker>
    <marker
       inkscape:stockid="Arrow1Lend"
       orient="auto"
       refY="0"
       refX="0"
       id="marker6735"
       style="overflow:visible"
       inkscape:isstock="true">
      <path
         id="path6737"
         d="M 0,0 5,-5 -12.5,0 5,5 Z"
         style="fill:#ff0000;fill-opacity:1;fill-rule:evenodd;stroke:#ff0000;stroke-width:1.00000003pt;stroke-opacity:1"
         transform="matrix(-0.8,0,0,-0.8,-10,0)"
         inkscape:connector-curvature="0" />
    </marker>
    <marker
       inkscape:stockid="Arrow1Lend"
       orient="auto"
       refY="0"
       refX="0"
       id="Arrow1Lend"
       style="overflow:visible"
       inkscape:isstock="true">
      <path
         id="path6191"
         d="M 0,0 5,-5 -12.5,0 5,5 Z"
         style="fill:#666666;fill-opacity:1;fill-rule:evenodd;stroke:#666666;stroke-width:1.00000003pt;stroke-opacity:1"
         transform="matrix(-0.8,0,0,-0.8,-10,0)"
         inkscape:connector-curvature="0" />
    </marker>
    <marker
       inkscape:stockid="Arrow1Lend"
       orient="auto"
       refY="0"
       refX="0"
       id="marker6735-4"
       style="overflow:visible"
       inkscape:isstock="true">
      <path
         inkscape:connector-curvature="0"
         id="path6737-6"
         d="M 0,0 5,-5 -12.5,0 5,5 Z"
         style="fill:#666666;fill-opacity:1;fill-rule:evenodd;stroke:#666666;stroke-width:1.00000003pt;stroke-opacity:1"
         transform="matrix(-0.8,0,0,-0.8,-10,0)" />
    </marker>
    <marker
       inkscape:stockid="Arrow1Lend"
       orient="auto"
       refY="0"
       refX="0"
       id="marker6735-6"
       style="overflow:visible"
       inkscape:isstock="true">
      <path
         inkscape:connector-curvature="0"
         id="path6737-7"
         d="M 0,0 5,-5 -12.5,0 5,5 Z"
         style="fill:#666666;fill-opacity:1;fill-rule:evenodd;stroke:#666666;stroke-width:1.00000003pt;stroke-opacity:1"
         transform="matrix(-0.8,0,0,-0.8,-10,0)" />
    </marker>
  </defs>
  <sodipodi:namedview
     id="base"
     pagecolor="#ffffff"
     bordercolor="#666666"
     borderopacity="1.0"
     inkscape:pageopacity="0.0"
     inkscape:pageshadow="2"
     inkscape:zoom="2.8284271"
     inkscape:cx="459.13739"
     inkscape:cy="141.21166"
     inkscape:document-units="px"
     inkscape:current-layer="layer1"
     showgrid="false"
     showguides="true"
     inkscape:guide-bbox="true"
     inkscape:window-width="2880"
     inkscape:window-height="1517"
     inkscape:window-x="0"
     inkscape:window-y="55"
     inkscape:window-maximized="1"
     fit-margin-top="0"
     fit-margin-left="0"
     fit-margin-right="0"
     fit-margin-bottom="0"
     scale-x="0.9375">
    <sodipodi:guide
       position="415.39384,5.0795382"
       orientation="1,0"
       id="guide7768"
       inkscape:locked="false" />
    <sodipodi:guide
       position="90.877794,80.212487"
       orientation="1,0"
       id="guide4617"
       inkscape:locked="false" />
    <sodipodi:guide
       position="144.90517,269.80548"
       orientation="0,1"
       id="guide4619"
       inkscape:locked="false" />
    <sodipodi:guide
       position="256.9374,62.645304"
       orientation="1,0"
       id="guide4621"
       inkscape:locked="false" />
  </sodipodi:namedview>
  <metadata
     id="metadata7">
    <rdf:RDF>
      <cc:Work
         rdf:about="">
        <dc:format>image/svg+xml</dc:format>
        <dc:type
           rdf:resource="http://purl.org/dc/dcmitype/StillImage" />
        <dc:title></dc:title>
      </cc:Work>
    </rdf:RDF>
  </metadata>
  <g
     inkscape:label="Layer 1"
     inkscape:groupmode="layer"
     id="layer1"
     transform="translate(-121.65977,-41.187943)">
    <path
       style="fill:#666666;fill-opacity:1;fill-rule:evenodd;stroke:none;stroke-width:1px;stroke-linecap:butt;stroke-linejoin:miter;stroke-opacity:1"
       d="m 192.97021,76.736577 12.39295,0.0223 -0.0207,10.0459 15.43867,-18.10275 -15.42523,-17.8284 -0.01,10.00683 -12.41063,-0.0434 z"
       id="path5618-0"
       inkscape:connector-curvature="0"
       sodipodi:nodetypes="cccccccc" />
    <rect
       y="56.921947"
       x="212.53755"
       height="268.80545"
       width="166.05962"
       id="rect5837-3"
       style="opacity:1;fill:none;fill-opacity:1;stroke:#666666;stroke-width:2;stroke-linejoin:miter;stroke-miterlimit:4;stroke-dasharray:none;stroke-dashoffset:0;stroke-opacity:1" />
    <path
       style="fill:none;fill-rule:evenodd;stroke:#000000;stroke-width:0.9375px;stroke-linecap:butt;stroke-linejoin:miter;stroke-opacity:1"
       d="M 220.67844,192.19745 H 370.06867"
       id="path3856"
       inkscape:connector-curvature="0"
       sodipodi:nodetypes="cc" />
    <path
       style="fill:none;fill-rule:evenodd;stroke:#000000;stroke-width:0.9375px;stroke-linecap:butt;stroke-linejoin:miter;stroke-opacity:1"
       d="M 220.67844,170.04157 H 370.06867"
       id="path3856-3"
       inkscape:connector-curvature="0"
       sodipodi:nodetypes="cc" />
    <path
       style="fill:none;fill-rule:evenodd;stroke:#000000;stroke-width:0.9375px;stroke-linecap:butt;stroke-linejoin:miter;stroke-opacity:1"
       d="M 220.67844,147.88567 H 370.06867"
       id="path3856-5"
       inkscape:connector-curvature="0"
       sodipodi:nodetypes="cc" />
    <path
       style="fill:none;fill-rule:evenodd;stroke:#000000;stroke-width:0.9375px;stroke-linecap:butt;stroke-linejoin:miter;stroke-opacity:1"
       d="M 220.67844,92.495947 H 370.06868"
       id="path3856-3-6"
       inkscape:connector-curvature="0"
       sodipodi:nodetypes="cc" />
    <path
       style="fill:none;fill-rule:evenodd;stroke:#000000;stroke-width:0.9375px;stroke-linecap:butt;stroke-linejoin:miter;stroke-opacity:1"
       d="M 220.67844,136.80773 H 370.06867"
       id="path3856-2"
       inkscape:connector-curvature="0"
       sodipodi:nodetypes="cc" />
    <path
       style="fill:none;fill-rule:evenodd;stroke:#000000;stroke-width:0.9375px;stroke-linecap:butt;stroke-linejoin:miter;stroke-opacity:1"
       d="M 220.67844,81.418011 H 370.06868"
       id="path3856-3-9"
       inkscape:connector-curvature="0"
       sodipodi:nodetypes="cc" />
    <path
       style="fill:none;fill-rule:evenodd;stroke:#000000;stroke-width:0.9375px;stroke-linecap:butt;stroke-linejoin:miter;stroke-opacity:1"
       d="M 220.67844,125.7298 H 370.06867"
       id="path3856-1"
       inkscape:connector-curvature="0"
       sodipodi:nodetypes="cc" />
    <path
       style="fill:none;fill-rule:evenodd;stroke:#000000;stroke-width:0.9375px;stroke-linecap:butt;stroke-linejoin:miter;stroke-opacity:1"
       d="M 220.67844,70.340072 H 370.06868"
       id="path3856-3-2"
       inkscape:connector-curvature="0"
       sodipodi:nodetypes="cc" />
    <path
       style="fill:none;fill-rule:evenodd;stroke:#000000;stroke-width:0.9375px;stroke-linecap:butt;stroke-linejoin:miter;stroke-opacity:1"
       d="M 220.67844,114.65183 H 370.06867"
       id="path3856-7"
       inkscape:connector-curvature="0"
       sodipodi:nodetypes="cc" />
    <path
       style="fill:none;fill-rule:evenodd;stroke:#000000;stroke-width:0.9375px;stroke-linecap:butt;stroke-linejoin:miter;stroke-opacity:1"
       d="M 220.67844,103.57389 H 370.06868"
       id="path3856-3-0"
       inkscape:connector-curvature="0"
       sodipodi:nodetypes="cc" />
    <path
       style="fill:none;fill-rule:evenodd;stroke:#000000;stroke-width:0.9375px;stroke-linecap:butt;stroke-linejoin:miter;stroke-opacity:1"
       d="M 220.67844,314.05482 H 370.06867"
       id="path3856-9"
       inkscape:connector-curvature="0"
       sodipodi:nodetypes="cc" />
    <path
       style="fill:none;fill-rule:evenodd;stroke:#000000;stroke-width:0.9375px;stroke-linecap:butt;stroke-linejoin:miter;stroke-opacity:1"
       d="M 220.67844,236.50923 H 370.06868"
       id="path3856-3-3"
       inkscape:connector-curvature="0"
       sodipodi:nodetypes="cc" />
    <path
       style="fill:none;fill-rule:evenodd;stroke:#000000;stroke-width:0.9375px;stroke-linecap:butt;stroke-linejoin:miter;stroke-opacity:1"
       d="M 220.67844,302.97688 H 370.06867"
       id="path3856-6"
       inkscape:connector-curvature="0"
       sodipodi:nodetypes="cc" />
    <path
       style="fill:none;fill-rule:evenodd;stroke:#000000;stroke-width:0.9375px;stroke-linecap:butt;stroke-linejoin:miter;stroke-opacity:1"
       d="M 220.67844,214.35332 H 370.06868"
       id="path3856-3-06"
       inkscape:connector-curvature="0"
       sodipodi:nodetypes="cc" />
    <path
       style="fill:none;fill-rule:evenodd;stroke:#000000;stroke-width:0.9375px;stroke-linecap:butt;stroke-linejoin:miter;stroke-opacity:1"
       d="M 220.67844,280.82101 H 370.06867"
       id="path3856-26"
       inkscape:connector-curvature="0"
       sodipodi:nodetypes="cc" />
    <path
       style="fill:none;fill-rule:evenodd;stroke:#000000;stroke-width:0.9375px;stroke-linecap:butt;stroke-linejoin:miter;stroke-opacity:1"
       d="M 220.67844,258.6651 H 370.06868"
       id="path3856-3-1"
       inkscape:connector-curvature="0"
       sodipodi:nodetypes="cc" />
    <path
       style="fill:none;fill-rule:evenodd;stroke:#000000;stroke-width:0.9375px;stroke-linecap:butt;stroke-linejoin:miter;stroke-opacity:1"
       d="M 220.67844,158.96364 H 370.06867"
       id="path3856-8"
       inkscape:connector-curvature="0"
       sodipodi:nodetypes="cc" />
    <path
       style="fill:none;fill-rule:evenodd;stroke:#000000;stroke-width:0.9375px;stroke-linecap:butt;stroke-linejoin:miter;stroke-opacity:1"
       d="M 220.67844,291.89895 H 370.06867"
       id="path3856-9-7"
       inkscape:connector-curvature="0"
       sodipodi:nodetypes="cc" />
    <path
       style="fill:none;fill-rule:evenodd;stroke:#000000;stroke-width:0.9375px;stroke-linecap:butt;stroke-linejoin:miter;stroke-opacity:1"
       d="M 220.67844,203.27539 H 370.06868"
       id="path3856-3-3-9"
       inkscape:connector-curvature="0"
       sodipodi:nodetypes="cc" />
    <path
       style="fill:none;fill-rule:evenodd;stroke:#000000;stroke-width:0.9375px;stroke-linecap:butt;stroke-linejoin:miter;stroke-opacity:1"
       d="M 220.67844,269.74303 H 370.06867"
       id="path3856-6-2"
       inkscape:connector-curvature="0"
       sodipodi:nodetypes="cc" />
    <path
       style="fill:none;fill-rule:evenodd;stroke:#000000;stroke-width:0.9375px;stroke-linecap:butt;stroke-linejoin:miter;stroke-opacity:1"
       d="M 220.67844,181.11951 H 370.06868"
       id="path3856-3-06-0"
       inkscape:connector-curvature="0"
       sodipodi:nodetypes="cc" />
    <path
       style="fill:none;fill-rule:evenodd;stroke:#000000;stroke-width:0.9375px;stroke-linecap:butt;stroke-linejoin:miter;stroke-opacity:1"
       d="M 220.67844,247.58715 H 370.06867"
       id="path3856-26-2"
       inkscape:connector-curvature="0"
       sodipodi:nodetypes="cc" />
    <path
       style="fill:none;fill-rule:evenodd;stroke:#000000;stroke-width:0.9375px;stroke-linecap:butt;stroke-linejoin:miter;stroke-opacity:1"
       d="M 220.67844,225.43126 H 370.06868"
       id="path3856-3-1-3"
       inkscape:connector-curvature="0"
       sodipodi:nodetypes="cc" />
    <text
       xml:space="preserve"
       style="font-style:normal;font-variant:normal;font-weight:normal;font-stretch:normal;font-size:12.5px;line-height:0%;font-family:'VL Gothic';-inkscape-font-specification:'VL Gothic';text-align:start;letter-spacing:0px;word-spacing:0px;writing-mode:lr-tb;text-anchor:start;fill:#000000;fill-opacity:1;stroke:none;stroke-width:1px;stroke-linecap:butt;stroke-linejoin:miter;stroke-opacity:1"
       x="259.20898"
       y="50.687943"
       id="text4771-7"><tspan
         style="stroke-width:1px"
         sodipodi:role="line"
         id="tspan4773-5"
         x="259.20898"
         y="50.687943">input file</tspan></text>
    <path
       style="fill:none;fill-rule:evenodd;stroke:#ff0000;stroke-width:2.8125;stroke-linecap:butt;stroke-linejoin:miter;stroke-miterlimit:4;stroke-dasharray:none;stroke-opacity:1"
       d="m 255.2964,187.32758 h -6.07639 v 10.41668 l 6.11255,-0.0362"
       id="path4039"
       inkscape:connector-curvature="0"
       sodipodi:nodetypes="cccc" />
    <path
       style="fill:none;fill-rule:evenodd;stroke:#ff0000;stroke-width:2.8125;stroke-linecap:butt;stroke-linejoin:miter;stroke-miterlimit:4;stroke-dasharray:none;stroke-opacity:1"
       d="m 333.85358,218.87042 6.07638,0.0105 0.018,-10.41665 -6.1126,0.0256"
       id="path4039-9"
       inkscape:connector-curvature="0"
       sodipodi:nodetypes="cccc" />
    <path
       style="fill:none;fill-rule:evenodd;stroke:#ff0000;stroke-width:2.8125;stroke-linecap:round;stroke-linejoin:round;stroke-miterlimit:4;stroke-dasharray:2.81249994, 8.43749982;stroke-dashoffset:0;stroke-opacity:1"
       d="m 256.25126,192.13226 113.81742,-0.26131"
       id="path4908"
       inkscape:connector-curvature="0"
       sodipodi:nodetypes="cc" />
    <path
       style="fill:none;fill-rule:evenodd;stroke:#ff0000;stroke-width:2.8125;stroke-linecap:round;stroke-linejoin:round;stroke-miterlimit:4;stroke-dasharray:2.81249997, 8.4374999;stroke-dashoffset:0;stroke-opacity:1"
       d="M 220.67844,202.94889 H 370.06868"
       id="path4908-2"
       inkscape:connector-curvature="0"
       sodipodi:nodetypes="cc" />
    <path
       style="fill:none;fill-rule:evenodd;stroke:#ff0000;stroke-width:2.8125;stroke-linecap:round;stroke-linejoin:round;stroke-miterlimit:4;stroke-dasharray:2.8125, 8.43749998;stroke-dashoffset:0;stroke-opacity:1"
       d="M 220.67844,214.02683 H 335.38118"
       id="path4908-2-2"
       inkscape:connector-curvature="0"
       sodipodi:nodetypes="cc" />
    <g
       aria-label="area"
       style="font-style:normal;font-variant:normal;font-weight:normal;font-stretch:normal;font-size:12.5px;line-height:0%;font-family:'VL Gothic';-inkscape-font-specification:'VL Gothic';text-align:start;letter-spacing:0px;word-spacing:0px;writing-mode:lr-tb;text-anchor:start;fill:#000000;fill-opacity:1;stroke:none;stroke-width:1px;stroke-linecap:butt;stroke-linejoin:miter;stroke-opacity:1"
       id="text4771-7-3" />
    <g
       id="g5595"
       transform="translate(-145.21796,91.603998)">
      <g
         id="text4771-7-9-7"
         style="font-style:normal;font-variant:normal;font-weight:normal;font-stretch:normal;font-size:12.5px;line-height:0%;font-family:'VL Gothic';-inkscape-font-specification:'VL Gothic';text-align:start;letter-spacing:0px;word-spacing:0px;writing-mode:lr-tb;text-anchor:start;fill:#000000;fill-opacity:1;stroke:#ffffff;stroke-width:1px;stroke-linecap:butt;stroke-linejoin:miter;stroke-opacity:1"
         aria-label="area"
         transform="translate(10.093756,22.609375)">
        <path
           inkscape:connector-curvature="0"
           id="path5522-8"
           style="stroke:#ffffff;stroke-width:1px;stroke-opacity:1"
           d="m 417.02206,85.088997 q 1.25,0 1.7125,0.5 0.475,0.5 0.475,1.875 v 4.25 h -0.9 l -0.025,-0.9375 h -0.025 q -0.5875,1.0625 -1.8625,1.0625 -0.8125,0 -1.3125,-0.5125 -0.5,-0.525 -0.5,-1.425 0,-1.1375 0.7625,-1.75 0.775,-0.625 2.3,-0.625 h 0.6 v -0.3125 q 0,-0.7125 -0.275,-1 -0.275,-0.2875 -0.95,-0.2875 -0.4125,0 -1.05,0.15 -0.6375,0.15 -1.075,0.35 v -0.9 q 0.4375,-0.1875 1.0625,-0.3125 0.625,-0.125 1.0625,-0.125 z m 1.225,3.1875 h -0.6 q -2.125,0 -2.125,1.5625 0,0.5625 0.2875,0.8625 0.2875,0.3 0.775,0.3 0.7375,0 1.2,-0.6 0.4625,-0.6 0.4625,-1.6875 z" />
        <path
           inkscape:connector-curvature="0"
           id="path5524-4"
           style="stroke:#ffffff;stroke-width:1px;stroke-opacity:1"
           d="m 422.40956,85.213997 v 1.25 h 0.025 q 0.775,-1.375 2.15,-1.375 0.4625,0 0.875,0.125 v 0.875 q -0.4375,-0.1375 -0.875,-0.1375 -0.9125,0 -1.525,0.7625 -0.6125,0.7625 -0.6125,2 v 3 h -0.9875 v -6.5 z" />
        <path
           inkscape:connector-curvature="0"
           id="path5526-5"
           style="stroke:#ffffff;stroke-width:1px;stroke-opacity:1"
           d="m 428.05956,88.788997 q 0.05,1.1625 0.475,1.675 0.425,0.5125 1.2375,0.5125 0.7625,0 1.6875,-0.45 v 1 q -0.925,0.3125 -1.75,0.3125 -2.6875,0 -2.6875,-3.375 0,-1.7625 0.625,-2.5625 0.625,-0.8125 1.875,-0.8125 1.1375,0 1.6875,0.775 0.5625,0.775 0.5625,2.5375 0,0.1375 -0.025,0.3875 z m 0,-0.825 h 2.725 q -0.0125,-2.0125 -1.2625,-2.0125 -0.7125,0 -1.0625,0.45 -0.35,0.45 -0.4,1.5625 z" />
        <path
           inkscape:connector-curvature="0"
           id="path5528-0"
           style="stroke:#ffffff;stroke-width:1px;stroke-opacity:1"
           d="m 435.77206,85.088997 q 1.25,0 1.7125,0.5 0.475,0.5 0.475,1.875 v 4.25 h -0.9 l -0.025,-0.9375 h -0.025 q -0.5875,1.0625 -1.8625,1.0625 -0.8125,0 -1.3125,-0.5125 -0.5,-0.525 -0.5,-1.425 0,-1.1375 0.7625,-1.75 0.775,-0.625 2.3,-0.625 h 0.6 v -0.3125 q 0,-0.7125 -0.275,-1 -0.275,-0.2875 -0.95,-0.2875 -0.4125,0 -1.05,0.15 -0.6375,0.15 -1.075,0.35 v -0.9 q 0.4375,-0.1875 1.0625,-0.3125 0.625,-0.125 1.0625,-0.125 z m 1.225,3.1875 h -0.6 q -2.125,0 -2.125,1.5625 0,0.5625 0.2875,0.8625 0.2875,0.3 0.775,0.3 0.7375,0 1.2,-0.6 0.4625,-0.6 0.4625,-1.6875 z" />
      </g>
      <g
         transform="translate(10.093756,22.609375)"
         id="text4771-7-9"
         style="font-style:normal;font-variant:normal;font-weight:normal;font-stretch:normal;font-size:12.5px;line-height:0%;font-family:'VL Gothic';-inkscape-font-specification:'VL Gothic';text-align:start;letter-spacing:0px;word-spacing:0px;writing-mode:lr-tb;text-anchor:start;fill:#000000;fill-opacity:1;stroke:none;stroke-width:1px;stroke-linecap:butt;stroke-linejoin:miter;stroke-opacity:1"
         aria-label="area">
        <path
           inkscape:connector-curvature="0"
           id="path5522"
           style="stroke-width:1px"
           d="m 417.02206,85.088997 q 1.25,0 1.7125,0.5 0.475,0.5 0.475,1.875 v 4.25 h -0.9 l -0.025,-0.9375 h -0.025 q -0.5875,1.0625 -1.8625,1.0625 -0.8125,0 -1.3125,-0.5125 -0.5,-0.525 -0.5,-1.425 0,-1.1375 0.7625,-1.75 0.775,-0.625 2.3,-0.625 h 0.6 v -0.3125 q 0,-0.7125 -0.275,-1 -0.275,-0.2875 -0.95,-0.2875 -0.4125,0 -1.05,0.15 -0.6375,0.15 -1.075,0.35 v -0.9 q 0.4375,-0.1875 1.0625,-0.3125 0.625,-0.125 1.0625,-0.125 z m 1.225,3.1875 h -0.6 q -2.125,0 -2.125,1.5625 0,0.5625 0.2875,0.8625 0.2875,0.3 0.775,0.3 0.7375,0 1.2,-0.6 0.4625,-0.6 0.4625,-1.6875 z" />
        <path
           inkscape:connector-curvature="0"
           id="path5524"
           style="stroke-width:1px"
           d="m 422.40956,85.213997 v 1.25 h 0.025 q 0.775,-1.375 2.15,-1.375 0.4625,0 0.875,0.125 v 0.875 q -0.4375,-0.1375 -0.875,-0.1375 -0.9125,0 -1.525,0.7625 -0.6125,0.7625 -0.6125,2 v 3 h -0.9875 v -6.5 z" />
        <path
           inkscape:connector-curvature="0"
           id="path5526"
           style="stroke-width:1px"
           d="m 428.05956,88.788997 q 0.05,1.1625 0.475,1.675 0.425,0.5125 1.2375,0.5125 0.7625,0 1.6875,-0.45 v 1 q -0.925,0.3125 -1.75,0.3125 -2.6875,0 -2.6875,-3.375 0,-1.7625 0.625,-2.5625 0.625,-0.8125 1.875,-0.8125 1.1375,0 1.6875,0.775 0.5625,0.775 0.5625,2.5375 0,0.1375 -0.025,0.3875 z m 0,-0.825 h 2.725 q -0.0125,-2.0125 -1.2625,-2.0125 -0.7125,0 -1.0625,0.45 -0.35,0.45 -0.4,1.5625 z" />
        <path
           inkscape:connector-curvature="0"
           id="path5528"
           style="stroke-width:1px"
           d="m 435.77206,85.088997 q 1.25,0 1.7125,0.5 0.475,0.5 0.475,1.875 v 4.25 h -0.9 l -0.025,-0.9375 h -0.025 q -0.5875,1.0625 -1.8625,1.0625 -0.8125,0 -1.3125,-0.5125 -0.5,-0.525 -0.5,-1.425 0,-1.1375 0.7625,-1.75 0.775,-0.625 2.3,-0.625 h 0.6 v -0.3125 q 0,-0.7125 -0.275,-1 -0.275,-0.2875 -0.95,-0.2875 -0.4125,0 -1.05,0.15 -0.6375,0.15 -1.075,0.35 v -0.9 q 0.4375,-0.1875 1.0625,-0.3125 0.625,-0.125 1.0625,-0.125 z m 1.225,3.1875 h -0.6 q -2.125,0 -2.125,1.5625 0,0.5625 0.2875,0.8625 0.2875,0.3 0.775,0.3 0.7375,0 1.2,-0.6 0.4625,-0.6 0.4625,-1.6875 z" />
      </g>
    </g>
    <path
       style="fill:#666666;fill-opacity:1;fill-rule:evenodd;stroke:none;stroke-width:1px;stroke-linecap:butt;stroke-linejoin:miter;stroke-opacity:1"
       d="m 218.89686,200.25581 12.39295,0.0223 -0.0207,10.0459 15.43867,-18.10275 -15.42523,-17.8284 -0.01,10.00683 -12.41063,-0.0434 z"
       id="path5618-0-1"
       inkscape:connector-curvature="0"
       sodipodi:nodetypes="cccccccc" />
    <text
       xml:space="preserve"
       style="font-style:normal;font-variant:normal;font-weight:normal;font-stretch:normal;font-size:12.5px;line-height:0%;font-family:'VL Gothic';-inkscape-font-specification:'VL Gothic';text-align:start;letter-spacing:0px;word-spacing:0px;writing-mode:lr-tb;text-anchor:start;fill:#000000;fill-opacity:1;stroke:none;stroke-width:1px;stroke-linecap:butt;stroke-linejoin:miter;stroke-opacity:1"
       x="120.78477"
       y="72.011642"
       id="text4771-7-36"><tspan
         style="stroke-width:1px"
         sodipodi:role="line"
         id="tspan4773-5-7"
         x="120.78477"
         y="72.011642">host parser</tspan></text>
    <text
       xml:space="preserve"
       style="font-style:normal;font-variant:normal;font-weight:normal;font-stretch:normal;font-size:12.5px;line-height:0%;font-family:'VL Gothic';-inkscape-font-specification:'VL Gothic';text-align:start;letter-spacing:0px;word-spacing:0px;writing-mode:lr-tb;text-anchor:start;fill:#000000;fill-opacity:1;stroke:none;stroke-width:1px;stroke-linecap:butt;stroke-linejoin:miter;stroke-opacity:1"
       x="131.38818"
       y="195.4604"
       id="text4771-7-36-5"><tspan
         style="stroke-width:1px"
         sodipodi:role="line"
         id="tspan4773-5-7-3"
         x="131.38818"
         y="195.4604">guest parser</tspan></text>
  </g>
</svg>
